<?xml version="1.0" encoding="UTF-8" standalone="no"?>
<svg
   xmlns:dc="http://purl.org/dc/elements/1.1/"
   xmlns:cc="http://creativecommons.org/ns#"
   xmlns:rdf="http://www.w3.org/1999/02/22-rdf-syntax-ns#"
   xmlns:svg="http://www.w3.org/2000/svg"
   xmlns="http://www.w3.org/2000/svg"
   xmlns:sodipodi="http://sodipodi.sourceforge.net/DTD/sodipodi-0.dtd"
   xmlns:inkscape="http://www.inkscape.org/namespaces/inkscape"
   viewBox="0 0 120.00001 120"
   x="0px"
   y="0px"
   id="svg2"
   version="1.1"
   inkscape:version="0.91 r13725"
   sodipodi:docname="caravel_icon.svg"
   width="120"
   height="120">
  <metadata
     id="metadata12">
    <rdf:RDF>
      <cc:Work
         rdf:about="">
        <dc:format>image/svg+xml</dc:format>
        <dc:type
           rdf:resource="http://purl.org/dc/dcmitype/StillImage" />
        <dc:title>sailing</dc:title>
      </cc:Work>
    </rdf:RDF>
  </metadata>
  <defs
     id="defs10" />
  <sodipodi:namedview
     pagecolor="#ffffff"
     bordercolor="#666666"
     borderopacity="1"
     objecttolerance="10"
     gridtolerance="10"
     guidetolerance="10"
     inkscape:pageopacity="0"
     inkscape:pageshadow="2"
     inkscape:window-width="640"
     inkscape:window-height="480"
     id="namedview8"
     showgrid="false"
     fit-margin-top="0"
     fit-margin-left="0"
     fit-margin-right="0"
     fit-margin-bottom="0"
     showguides="true"
     inkscape:guide-bbox="true"
     inkscape:zoom="2"
     inkscape:cx="123.00672"
     inkscape:cy="-54.245854"
     inkscape:current-layer="svg2">
    <inkscape:grid
       type="xygrid"
       id="grid4150"
       originx="-39.998282"
       originy="128.62964" />
    <sodipodi:guide
       position="-62.168706,246.87191"
       orientation="0,1"
       id="guide4152" />
  </sodipodi:namedview>
  <title
     id="title4">sailing</title>
  <path
     inkscape:connector-curvature="0"
     id="path4153"
     d="m 117.2661,103.80906 -10.57135,10.57132 -93.421153,0 L 2.7022571,103.80906 C 0.48964971,101.59644 1.227186,99.62967 4.4231731,99.62967 l 111.1220069,0 c 3.19598,0 3.93351,1.96677 1.72092,4.17939 z"
     style="fill:#000000;fill-opacity:1;stroke:#f2f2f2;stroke-width:2.20623422;stroke-miterlimit:4;stroke-dasharray:none" />
  <path
     inkscape:connector-curvature="0"
     id="path4155"
     d="m 58.509102,92.254336 47.448128,0 a 2.4584512,2.4584512 0 0 0 2.45844,-2.950143 L 90.468974,8.6669879 c -0.491681,-2.4584461 -1.229213,-2.4584461 -1.475065,0 C 86.289606,35.9558 75.964117,62.752917 56.296497,88.812511 a 2.4584512,2.4584512 0 0 0 2.212605,3.441825 z"
     style="fill:#008080;stroke:#f2f2f2;stroke-width:2.20623422;stroke-miterlimit:4;stroke-dasharray:none" />
  <path
     inkscape:connector-curvature="0"
     id="path4157"
     d="m 13.273597,92.254336 34.910009,0 a 1.7209157,1.7209157 0 0 0 1.720917,-2.21261 L 36.874732,31.776441 c -0.491692,-2.458467 -1.229225,-2.212617 -1.475071,0 C 33.4329,51.444036 25.565855,70.865801 11.55268,89.550046 a 1.7209157,1.7209157 0 0 0 1.720917,2.70429 z"
     style="fill:#0080a3;fill-opacity:1;stroke:#f2f2f2;stroke-width:2.20623422;stroke-miterlimit:4;stroke-dasharray:none" />
</svg>
